#!OML:ASF F:\VICON\USERDATA\INSTALL\rory3\rory3.ASF
:FULLY-SPECIFIED
:DEGREES
245
root 0.573545 18.057 16.4004 -4.27909 -0.331563 1.34388
lowerback 9.68518 0.194741 -2.09542
upperback 0.550481 0.0451177 0.307917
thorax -4.86285 0.0712844 1.49483
lowerneck -16.471 -2.72175 -2.28279
upperneck 21.1137 -3.38982 0.854962
head 9.43758 -1.66818 0.237647
rclavicle -2.09656e-015 2.98177e-015
rhumerus -30.9128 -25.3133 -77.0362
rradius 20.3034
rwrist 11.6559
rhand -17.4986 25.7976
rfingers 7.12502
rthumb 8.75423 -4.00081
lclavicle -2.09656e-015 2.98177e-015
lhumerus -29.0248 2.75365 82.3141
lradius 22.7678
lwrist 3.85529
lhand -22.8934 32.2068
lfingers 7.12502
lthumb 3.54609 62.157
rfemur -21.4663 0.959808 20.7088
rtibia 72.9952
rfoot -3.66342 -6.79061
rtoes 9.67927
lfemur -5.17322 -2.91699 -25.8321
ltibia 23.2059
lfoot -10.8952 -2.05935
ltoes -1.09407
246
root 0.56985 18.0363 16.5664 -4.30064 -0.0325547 1.4865
lowerback 9.81024 0.0774206 -2.34553
upperback 0.516196 -0.140248 0.338356
thorax -4.96061 -0.0128398 1.69364
lowerneck -16.3587 -2.63355 -2.2985
upperneck 21.0698 -3.28089 0.921458
head 9.40109 -1.61193 0.279052
rclavicle 9.44538e-015 2.38542e-015
rhumerus -31.1318 -24.7871 -77.1628
rradius 20.7176
rwrist 10.9135
rhand -17.3745 25.1682
rfingers 7.12502
rthumb 8.874 -4.62525
lclavicle 9.44538e-015 2.38542e-015
lhumerus -28.8058 2.39791 82.4396
lradius 22.9873
lwrist 3.62191
lhand -23.2739 31.3133
lfingers 7.12502
lthumb 3.17858 61.2694
rfemur -22.4239 0.652495 20.511
rtibia 72.2914
rfoot -5.24766 -7.07215
rtoes 8.77513
lfemur -4.73533 -2.96693 -26.0169
ltibia 23.6812
lfoot -12.1161 -1.96132
ltoes 0.697241
247
root 0.5649 18.0044 16.7258 -4.17428 0.270785 2.05835
lowerback 9.94209 0.0502889 -3.01478
upperback 0.422307 -0.262444 0.22598
thorax -5.1254 -0.0555216 1.9718
lowerneck -16.3412 -2.7119 -2.25515
upperneck 21.0239 -3.37578 0.813592
head 9.38063 -1.66501 0.222947
rclavicle -1.51977e-014 2.78299e-015
rhumerus -31.2236 -24.6805 -77.1782
rradius 20.9369
rwrist 10.4655
rhand -17.1051 24.0583
rfingers 7.12502
rthumb 9.13397 -5.72393
lclavicle -1.51977e-014 2.78299e-015
lhumerus -28.4501 1.3505 82.7898
lradius 22.9502
lwrist 3.28034
lhand -24.7805 29.6876
lfingers 7.12502
lthumb 1.72358 59.6604
rfemur -23.5567 0.299423 19.835
rtibia 71.4969
rfoot -6.67559 -7.27956
rtoes 6.59716
lfemur -4.49347 -2.94398 -26.6602
ltibia 24.169
lfoot -12.8209 -1.90799
ltoes 2.52334
248
root 0.555891 17.9788 16.8736 -4.06711 0.470754 2.18774
lowerback 10.1651 -0.0260334 -3.37704
upperback 0.424395 -0.408375 0.317516
thorax -5.23736 -0.115757 2.29452
lowerneck -16.2822 -2.67758 -2.29737
upperneck 20.6482 -3.29478 0.737269
head 9.23705 -1.63983 0.217239
rclavicle -1.30515e-014 6.36111e-015
rhumerus -31.0981 -24.0803 -77.461
rradius 21.3613
rwrist 9.73173
rhand -17.0605 23.1728
rfingers 7.12502
rthumb 9.17698 -6.60748
lclavicle -1.30515e-014 6.36111e-015
lhumerus -27.5639 1.0912 83.0086
lradius 22.6168
lwrist 2.80187
lhand -25.8353 28.9335
lfingers 7.12502
lthumb 0.704828 58.9121
rfemur -24.7132 0.138384 19.7254
rtibia 70.4791
rfoot -8.06155 -7.71521
rtoes 3.1209
lfemur -4.31926 -2.9469 -26.7989
ltibia 24.6081
lfoot -13.5666 -1.80215
ltoes 2.6215
249
root 0.550946 17.961 17.0305 -4.04302 0.573648 2.01686
lowerback 10.2344 -0.0899279 -3.29957
upperback 0.516314 -0.479192 0.430352
thorax -5.17462 -0.15356 2.37931
lowerneck -16.2758 -2.6362 -2.34129
upperneck 20.4368 -3.24468 0.830449
head 9.16422 -1.60957 0.264147
rclavicle -1.60829e-014 1.0138e-014
rhumerus -30.9691 -23.729 -77.7369
rradius 21.7637
rwrist 9.15745
rhand -17.2538 22.5873
rfingers 7.12502
rthumb 8.9904 -7.20109
lclavicle -1.60829e-014 1.0138e-014
lhumerus -26.8348 0.701973 83.1547
lradius 22.5747
lwrist 3.76437
lhand -26.9994 24.8063
lfingers 7.12502
lthumb -0.419504 54.7856
rfemur -25.6922 0.15735 19.9541
rtibia 69.2006
rfoot -8.1776 -8.3331
rtoes 4.60339
lfemur -3.97369 -2.97913 -26.6293
ltibia 24.9318
lfoot -14.219 -1.61683
ltoes 3.04292
250
root 0.550849 17.9392 17.1925 -4.03514 0.691023 2.16097
lowerback 10.4273 -0.106883 -3.44573
upperback 0.509982 -0.526227 0.426675
thorax -5.28525 -0.171055 2.46701
lowerneck -16.4643 -2.63415 -2.4237
upperneck 20.5739 -3.23393 0.903934
head 9.24913 -1.60165 0.301129
rclavicle -1.4356e-014 -5.76476e-015
rhumerus -30.9764 -23.3819 -77.8901
rradius 22.0426
rwrist 8.74937
rhand -17.4773 22.0688
rfingers 7.12502
rthumb 8.77473 -7.72883
lclavicle -1.4356e-014 -5.76476e-015
lhumerus -26.7489 0.0342189 83.3152
lradius 23.5252
lwrist 4.20009
lhand -27.0198 24.747
lfingers 7.12502
lthumb -0.439208 54.7263
rfemur -26.513 0.00649345 19.7559
rtibia 67.7689
rfoot -8.64429 -8.725
rtoes 3.97401
lfemur -3.49431 -2.92596 -26.838
ltibia 25.1658
lfoot -14.7536 -1.41657
ltoes 2.2804
251
root 0.546226 17.9226 17.3541 -3.9901 0.849703 2.46848
lowerback 10.6529 -0.104219 -3.79234
upperback 0.492092 -0.576983 0.363589
thorax -5.42483 -0.185143 2.60689
lowerneck -16.6471 -2.60724 -2.3414
upperneck 20.6288 -3.20362 0.858569
head 9.29889 -1.585 0.273267
rclavicle 1.76794e-014 6.55989e-015
rhumerus -31.0895 -23.0676 -78.0163
rradius 22.4116
rwrist 8.45153
rhand -17.787 22.7861
rfingers 7.12502
rthumb 8.47585 -7.0238
lclavicle 1.76794e-014 6.55989e-015
lhumerus -26.4409 -0.600193 83.4439
lradius 24.1834
lwrist 4.476
lhand -26.7978 26.5288
lfingers 7.12502
lthumb -0.224826 56.5084
rfemur -27.2966 -0.16516 19.3919
rtibia 66.1245
rfoot -9.21736 -9.13137
rtoes 1.76054
lfemur -2.97844 -2.87942 -27.2019
ltibia 25.2668
lfoot -15.2719 -1.28074
ltoes 2.98767
252
root 0.533422 17.9146 17.5161 -3.91315 1.04957 2.30853
lowerback 10.7062 -0.158238 -3.82214
upperback 0.527499 -0.648117 0.465362
thorax -5.41074 -0.218985 2.74171
lowerneck -16.6082 -2.59867 -2.32462
upperneck 20.506 -3.21529 0.94275
head 9.2504 -1.57991 0.299053
rclavicle 1.74931e-014 -2.18663e-015
rhumerus -31.1479 -23.3173 -77.9218
rradius 22.5257
rwrist 8.63426
rhand -17.7694 23.7248
rfingers 7.12502
rthumb 8.49291 -6.08444
lclavicle 1.74931e-014 -2.18663e-015
lhumerus -25.7452 -0.739719 83.4443
lradius 24.2464
lwrist 4.3418
lhand -26.5311 27.5094
lfingers 7.12502
lthumb 0.0327636 57.4892
rfemur -28.0072 -0.214642 19.6091
rtibia 64.2436
rfoot -9.50701 -9.97881
rtoes -0.956928
lfemur -2.47792 -2.94032 -27.0166
ltibia 25.2919
lfoot -15.7792 -1.12281
ltoes 2.26523
253
root 0.5262 17.9059 17.6834 -3.813 1.27199 2.2274
lowerback 10.6117 -0.213538 -3.81452
upperback 0.633167 -0.711348 0.525671
thorax -5.24102 -0.254924 2.80784
lowerneck -16.5336 -2.64125 -2.37564
upperneck 20.2502 -3.27989 1.03301
head 9.15169 -1.60455 0.332386
rclavicle 2.2736e-015 -1.41137e-014
rhumerus -31.0197 -23.4812 -77.8997
rradius 22.5278
rwrist 8.75962
rhand -17.65 24.3625
rfingers 7.12502
rthumb 8.6081 -5.44202
lclavicle 2.2736e-015 -1.41137e-014
lhumerus -25.101 -0.937674 83.4406
lradius 24.6434
lwrist 4.03687
lhand -26.0683 29.5468
lfingers 7.12502
lthumb 0.479742 59.526
rfemur -28.6033 -0.302401 19.7064
rtibia 62.1874
rfoot -9.085 -11.0216
rtoes -2.00306
lfemur -1.96269 -3.12859 -26.9408
ltibia 25.2877
lfoot -16.1815 -0.962629
ltoes 1.09491
254
root 0.526075 17.8904 17.8505 -3.78125 1.29647 2.24389
lowerback 10.6035 -0.221667 -3.79656
upperback 0.757732 -0.717385 0.524735
thorax -5.10514 -0.263192 2.79629
lowerneck -16.6306 -2.63465 -2.17381
upperneck 20.0752 -3.28597 0.88878
head 9.10251 -1.60743 0.248751
rclavicle -2.76559e-014 1.39149e-015
rhumerus -30.7861 -23.732 -77.9185
rradius 22.4186
rwrist 9.14079
rhand -17.7121 24.637
rfingers 7.12502
rthumb 8.54822 -5.16999
lclavicle -2.76559e-014 1.39149e-015
lhumerus -24.6315 -1.2299 83.4725
lradius 25.2527
lwrist 4.18748
lhand -26.1778 29.8415
lfingers 7.12502
lthumb 0.374036 59.8209
rfemur -29.0621 -0.261277 19.6471
rtibia 59.9913
rfoot -8.01757 -11.4729
rtoes 4.09314
lfemur -1.31256 -3.15334 -27.0161
ltibia 25.1995
lfoot -16.6232 -0.741875
ltoes 0.562885
255
root 0.520384 17.8828 18.0107 -3.64968 1.23163 2.10512
lowerback 10.7726 -0.246877 -3.74192
upperback 0.648493 -0.746841 0.638648
thorax -5.31164 -0.271477 2.8931
lowerneck -16.6584 -2.60781 -2.18299
upperneck 20.1467 -3.23459 0.836278
head 9.13075 -1.58976 0.238107
rclavicle 4.72114e-016 6.55989e-015
rhumerus -30.7916 -23.583 -77.927
rradius 22.392
rwrist 9.17103
rhand -17.4982 23.8732
rfingers 7.12502
rthumb 8.7546 -5.92524
lclavicle 4.72114e-016 6.55989e-015
lhumerus -24.475 -1.86121 83.6829
lradius 25.755
lwrist 5.2107
lhand -27.1639 26.5367
lfingers 7.12502
lthumb -0.578414 56.5156
rfemur -29.5855 -0.0686287 19.7873
rtibia 57.633
rfoot -6.18603 -11.6435
rtoes 14.2949
lfemur -0.741947 -3.16413 -26.885
ltibia 24.8916
lfoot -16.9359 -0.65857
ltoes 1.5228
256
root 0.514204 17.8768 18.1734 -3.50709 1.40185 2.32422
lowerback 10.9545 -0.291689 -4.05747
upperback 0.530386 -0.854123 0.651651
thorax -5.52541 -0.309518 3.10582
lowerneck -16.6893 -2.6172 -2.16864
upperneck 20.2373 -3.23381 0.757614
head 9.16612 -1.59683 0.20799
rclavicle 2.03382e-014 -7.95139e-015
rhumerus -30.9159 -23.2808 -77.9948
rradius 22.6533
rwrist 8.90759
rhand -17.2518 23.1135
rfingers 7.12502
rthumb 8.99237 -6.67483
lclavicle 2.03382e-014 -7.95139e-015
lhumerus -24.1739 -2.17085 83.8203
lradius 25.8881
lwrist 5.70098
lhand -27.6657 24.4942
lfingers 7.12502
lthumb -1.06305 54.4713
rfemur -30.0426 -0.036553 19.4877
rtibia 55.2071
rfoot -9.43579 -11.5252
rtoes 0.884088
lfemur -0.0761399 -3.22546 -27.1259
ltibia 24.4096
lfoot -17.2434 -0.75261
ltoes 2.24565
257
root 0.515958 17.8716 18.3456 -3.37259 1.50722 2.61575
lowerback 10.7814 -0.323314 -4.30036
upperback 0.647155 -0.920525 0.569636
thorax -5.29753 -0.344804 3.16236
lowerneck -16.7944 -2.65613 -2.09216
upperneck 19.9962 -3.30738 0.778202
head 9.10188 -1.6227 0.193118
rclavicle 9.11925e-015 -3.97569e-015
rhumerus -30.6376 -23.4738 -78.0556
rradius 22.5226
rwrist 9.21124
rhand -17.4527 24.1054
rfingers 7.12502
rthumb 8.79852 -5.69115
lclavicle 9.11925e-015 -3.97569e-015
lhumerus -23.6023 -2.30721 83.7794
lradius 26.196
lwrist 5.6793
lhand -28.2361 24.8318
lfingers 7.12502
lthumb -1.61399 54.8054
rfemur -30.32 0.0378676 19.0438
rtibia 52.6247
rfoot -9.29626 -12.0334
rtoes -0.241005
lfemur 0.798905 -3.4493 -27.5231
ltibia 23.7752
lfoot -17.383 -0.580765
ltoes 3.04147
